<svg height="56" viewBox="0 0 56 56" width="56" xmlns="http://www.w3.org/2000/svg"><path d="m28.0108 24.2502c.3933 0 .7211-.153 1.1799-.5681l6.817-6.3582c.3714-.3496.5244-.6991.5244-1.158 0-.8521-.6118-1.4639-1.4858-1.4639-.437 0-.8521.1967-1.1798.5026l-2.7312 2.753-1.6168 1.879.2621-3.2992v-8.1936c0-1.0705-.8084-1.9227-1.7698-1.9227-.9613 0-1.7916.8522-1.7916 1.9227v8.1936l.2622 3.2992-1.3984-1.6605-2.9496-2.9715c-.3059-.3059-.7429-.5026-1.158-.5026-.874 0-1.4858.6118-1.4858 1.4639 0 .4589.153.8084.5244 1.158l6.817 6.3582c.4588.4151.7647.5681 1.1798.5681zm11.2523 5.9867c.6994.6773 1.8575.6773 2.6656-.1092l3.8018-3.8018c.8085-.8085.7866-1.9446.0877-2.622-.6556-.6991-1.8136-.721-2.6222.0874l-3.8018 3.8018c-.7864.8085-.8083 1.9883-.1311 2.6438zm-25.1703-.1092c.8085.7865 1.9664.8084 2.6438.1092.6773-.6774.6773-1.8353-.1311-2.6438l-3.8018-3.8018c-.8084-.8084-1.9227-.7647-2.6219-.0874-.6992.6555-.6992 1.8135.1092 2.622zm-12.1919 21.8274h52.1982c1.0485 0 1.9009-.7865 1.9009-1.7698 0-.9613-.8524-1.7479-1.9009-1.7479h-16.409c1.4202-1.9446 2.2724-4.3262 2.2724-6.9263 0-6.5548-5.4406-11.9734-11.9517-11.9734-6.5329 0-11.9516 5.4186-11.9516 11.9734 0 2.6001.8303 4.9817 2.2724 6.9263h-16.4307c-1.0269 0-1.9009.7866-1.9009 1.7479 0 .9833.874 1.7698 1.9009 1.7698zm17.6761-10.444c0-4.632 3.8018-8.4338 8.4338-8.4338 4.6321 0 8.4339 3.8018 8.4339 8.4338 0 2.8841-1.4858 5.4405-3.7362 6.9263h-9.4171c-2.2286-1.4858-3.7144-4.0422-3.7144-6.9263zm-14.8357 1.2236h5.3749c1.1362 0 1.9883-.8084 1.9665-1.7698-.0219-.9832-.8303-1.7916-1.9665-1.7916h-5.3749c-1.1362 0-1.9446.8084-1.9446 1.7916 0 .9614.8084 1.7698 1.9446 1.7698zm41.1641 0h5.3751c1.1142 0 1.9443-.8084 1.9443-1.7698 0-.9832-.8301-1.7916-1.9443-1.7916h-5.3751c-1.1361 0-1.9881.8084-1.9662 1.7916.0215.9614.8301 1.7698 1.9662 1.7698z"/></svg>